<?xml version="1.0" standalone="no"?>
<!DOCTYPE svg PUBLIC "-//W3C//DTD SVG 20010904//EN"
 "http://www.w3.org/TR/2001/REC-SVG-20010904/DTD/svg10.dtd">
<svg version="1.0" xmlns="http://www.w3.org/2000/svg"
 width="75.000000pt" height="61.000000pt" viewBox="0 0 75.000000 61.000000"
 preserveAspectRatio="xMidYMid meet">

<g transform="translate(0.000000,61.000000) scale(0.100000,-0.100000)"
fill="#000000" stroke="none">
<path d="M0 458 c1 -137 2 -149 14 -117 31 89 112 176 216 233 l65 36 -147 0
-148 0 0 -152z"/>
<path d="M307 586 c4 -19 -6 -32 -54 -69 -117 -90 -155 -151 -138 -226 9 -42
25 -49 110 -43 72 4 75 4 104 -26 27 -26 31 -38 31 -84 0 -63 -16 -90 -68
-118 l-37 -19 150 0 150 -1 -40 19 c-85 39 -128 116 -128 224 0 130 96 269
228 332 66 31 75 31 75 2 0 -17 -18 -36 -65 -71 -92 -67 -118 -105 -123 -175
-5 -72 13 -97 62 -84 61 16 113 9 142 -17 14 -14 30 -34 34 -45 5 -11 9 75 9
203 l1 222 -224 0 -223 0 4 -24z"/>
<path d="M1 93 l-1 -93 83 1 c64 0 77 2 57 10 -62 25 -109 79 -131 149 -5 16
-8 -9 -8 -67z"/>
<path d="M721 58 c-14 -17 -38 -36 -55 -44 -31 -13 -30 -13 27 -14 l57 0 0 45
c0 25 -1 45 -2 44 -2 0 -14 -14 -27 -31z"/>
</g>
</svg>
