<?xml version="1.0" encoding="UTF-8" standalone="no"?>
<!-- Created with Inkscape (http://www.inkscape.org/) -->

<svg
   xmlns:dc="http://purl.org/dc/elements/1.1/"
   xmlns:cc="http://creativecommons.org/ns#"
   xmlns:rdf="http://www.w3.org/1999/02/22-rdf-syntax-ns#"
   xmlns:svg="http://www.w3.org/2000/svg"
   xmlns="http://www.w3.org/2000/svg"
   xmlns:sodipodi="http://sodipodi.sourceforge.net/DTD/sodipodi-0.dtd"
   xmlns:inkscape="http://www.inkscape.org/namespaces/inkscape"
   width="94.074219mm"
   height="65.653542mm"
   viewBox="0 0 94.074219 65.653542"
   version="1.1"
   id="svg192"
   inkscape:version="0.92.2 (5c3e80d, 2017-08-06)"
   sodipodi:docname="quote.svg">
  <defs
     id="defs186" />
  <sodipodi:namedview
     id="base"
     pagecolor="#ffffff"
     bordercolor="#666666"
     borderopacity="1.0"
     inkscape:pageopacity="0.0"
     inkscape:pageshadow="2"
     inkscape:zoom="0.35"
     inkscape:cx="376.34948"
     inkscape:cy="-104.50179"
     inkscape:document-units="mm"
     inkscape:current-layer="layer1"
     showgrid="false"
     inkscape:window-width="1366"
     inkscape:window-height="705"
     inkscape:window-x="-8"
     inkscape:window-y="-8"
     inkscape:window-maximized="1" />
  <metadata
     id="metadata189">
    <rdf:RDF>
      <cc:Work
         rdf:about="">
        <dc:format>image/svg+xml</dc:format>
        <dc:type
           rdf:resource="http://purl.org/dc/dcmitype/StillImage" />
        <dc:title></dc:title>
      </cc:Work>
    </rdf:RDF>
  </metadata>
  <g
     inkscape:label="Layer 1"
     inkscape:groupmode="layer"
     id="layer1"
     transform="translate(-6.2575321,-55.530361)">
    <path
        style="fill:#ffffff;fill-opacity:.4;stroke-width:0.23299977"
       d="m 72.776464,119.71367 c -3.89,-1.67518 -5.605984,-2.69973 -7.991301,-4.77137 -4.358127,-3.78499 -6.892422,-8.88044 -7.63517,-15.351275 -0.240902,-2.09873 -0.113669,-6.732195 0.230477,-8.393682 0.41885,-2.022112 1.185136,-4.567145 1.859675,-6.17643 4.042267,-9.64389 12.562253,-18.210442 23.178317,-23.304991 3.375459,-1.619855 8.682094,-3.528198 9.811044,-3.528198 0.274488,0 0.660757,0.135984 0.903488,0.318085 0.374822,0.281178 0.433016,0.44056 0.5017,1.373963 0.07162,0.973479 0.03983,1.122977 -0.407621,1.915658 -0.841142,1.490148 -2.883382,3.135968 -8.334707,6.716837 -10.38401,6.821061 -13.307761,10.504236 -14.036169,17.682012 -0.417221,4.111329 0.098,7.047273 1.484663,8.460154 1.256281,1.280028 3.151387,1.488383 6.851409,0.753223 3.14461,-0.624796 4.593045,-0.753705 7.548302,-0.67179 2.152201,0.05961 2.857603,0.134268 4.077622,0.43047 2.340945,0.56859 3.798784,1.301582 5.400211,2.715155 1.234413,1.089615 1.377459,1.270335 1.471847,1.859396 0.289537,1.806983 2.433189,12.083723 2.641249,12.662213 0.0134,0.0377 -0.505775,0.62014 -1.154105,1.29421 -0.648335,0.67408 -1.537486,1.60053 -1.975887,2.05881 -1.620639,1.69412 -4.589759,3.68309 -6.815233,4.56546 -0.660372,0.26191 -1.428656,0.56988 -1.707294,0.68455 -0.432497,0.17792 -1.394138,0.20141 -6.573183,0.16047 l -6.066572,-0.0479 z"
       id="path172"
       inkscape:connector-curvature="0" />
    <path
       style="fill:#ffffff;fill-opacity:.4;stroke-width:0.23299977"
       d="m 20.349242,117.63783 c -3.44038,-1.54878 -6.682997,-3.93799 -9.246693,-6.81315 -1.2332261,-1.38302 -3.2529164,-4.66668 -4.2632726,-6.93134 l -0.5817443,-1.3039 0.076113,-8.852904 0.076113,-8.852871 0.9107574,-1.9902 C 7.8214391,81.798852 8.4711531,80.490316 8.7643468,79.985577 12.653667,73.289875 19.786856,66.594059 28.24941,61.695242 c 2.341506,-1.355453 6.753966,-3.557158 10.463792,-5.221164 1.957581,-0.878052 2.297833,-0.987996 2.882422,-0.931369 0.419149,0.04061 0.700335,0.147544 0.764843,0.290904 0.05609,0.124664 0.142663,0.883679 0.192341,1.686671 0.08263,1.336047 0.05913,1.515749 -0.277009,2.116859 -0.507192,0.907038 -2.267044,2.383879 -5.625844,4.721116 -8.766072,6.099921 -11.963913,8.809993 -14.777132,12.52316 -3.09309,4.082608 -3.946386,8.301531 -2.556938,12.642288 1.141238,3.565286 2.98258,4.359933 9.646972,4.163108 10.737364,-0.317064 11.766209,-0.28991 13.307192,0.350721 0.860306,0.357676 4.766252,3.678541 5.536197,4.706922 0.281805,0.376431 0.669862,1.117612 0.862308,1.647062 0.322917,0.88843 0.349731,1.2325 0.347721,4.46263 -0.0017,2.85538 -0.05515,3.71485 -0.289848,4.66664 -0.773687,3.13752 -2.419949,5.03843 -6.202294,7.16161 -0.781538,0.43869 -1.637665,0.83013 -1.902505,0.86988 -0.800485,0.12012 -15.095359,0.75274 -17.008133,0.75277 h -1.782172 z"
       id="path174"
       inkscape:connector-curvature="0" />
  </g>
</svg>
