<?xml version="1.0" encoding="UTF-8" standalone="no"?>
<!-- Created with Inkscape (http://www.inkscape.org/) -->

<svg
   xmlns:dc="http://purl.org/dc/elements/1.1/"
   xmlns:cc="http://creativecommons.org/ns#"
   xmlns:rdf="http://www.w3.org/1999/02/22-rdf-syntax-ns#"
   xmlns:svg="http://www.w3.org/2000/svg"
   xmlns="http://www.w3.org/2000/svg"
   xmlns:sodipodi="http://sodipodi.sourceforge.net/DTD/sodipodi-0.dtd"
   xmlns:inkscape="http://www.inkscape.org/namespaces/inkscape"
   width="156.16576mm"
   height="161.0321mm"
   viewBox="0 0 156.16576 161.0321"
   version="1.1"
   id="svg109"
   inkscape:version="0.92.2 (5c3e80d, 2017-08-06)"
   sodipodi:docname="stars3.svg">
  <defs
     id="defs103" />
  <sodipodi:namedview
     id="base"
     pagecolor="#ffffff"
     bordercolor="#666666"
     borderopacity="1.0"
     inkscape:pageopacity="0.0"
     inkscape:pageshadow="2"
     inkscape:zoom="0.35"
     inkscape:cx="-93.455039"
     inkscape:cy="41.45551"
     inkscape:document-units="mm"
     inkscape:current-layer="layer1"
     showgrid="false"
     inkscape:window-width="1366"
     inkscape:window-height="705"
     inkscape:window-x="-8"
     inkscape:window-y="-8"
     inkscape:window-maximized="1" />
  <metadata
     id="metadata106">
    <rdf:RDF>
      <cc:Work
         rdf:about="">
        <dc:format>image/svg+xml</dc:format>
        <dc:type
           rdf:resource="http://purl.org/dc/dcmitype/StillImage" />
        <dc:title></dc:title>
      </cc:Work>
    </rdf:RDF>
  </metadata>
  <g
     inkscape:label="Layer 1"
     inkscape:groupmode="layer"
     id="layer1"
     transform="translate(-0.91414562,1.2303417)">
    <path
       style="fill:#800000;stroke-width:0.32415372"
       d="m 107.90063,159.6479 c -0.28471,-0.0538 -1.25496,-0.18321 -2.15608,-0.28768 -1.89622,-0.22007 -2.18565,-0.55287 -2.71368,-3.1205 -0.42304,-2.05703 -1.22851,-3.36747 -4.725921,-7.68877 -4.820673,-5.95624 -27.787939,-31.72312 -35.34905,-39.6579 -3.1626,-3.3189 -3.465484,-3.5534 -4.167609,-3.22654 -2.124521,0.98899 -19.388551,12.2071 -31.472643,20.45084 -13.262996,9.04796 -17.083307,12.00551 -17.083307,13.22533 0,1.62253 -1.9186623,3.80409 -3.9018804,4.43654 -0.862489,0.27504 -2.9519111,-0.55065 -4.2946762,-1.69714 -0.8998433,-0.76832 -1.12163778,-1.20002 -1.12163778,-2.18309 0,-1.08364 0.22947308,-1.42999 1.98301828,-2.9933 l 1.9830183,-1.76786 1.2638747,-27.31719 C 8.1123307,65.278654 8.2658752,61.34213 8.0795374,58.199319 7.9066019,55.282629 7.8935188,55.246194 6.7449933,54.482207 2.6821601,51.77966 1.3830027,49.913238 1.6781974,47.203019 1.7677542,46.380773 2.1899586,45.110957 2.616428,44.381229 5.1512745,40.04383 9.4166981,38.98928 14.086994,41.545378 c 1.624274,0.888978 2.539103,1.191587 3.565372,1.179358 1.529215,-0.01832 3.074601,-0.629583 40.896431,-16.17912 12.622679,-5.189521 27.764706,-11.398374 33.648977,-13.797458 5.88427,-2.399083 10.892776,-4.4906259 11.130036,-4.6478707 0.26761,-0.1773423 0.43429,-1.0520769 0.43899,-2.303751 0.0104,-2.4342638 0.74342,-3.9907541 2.63901,-5.59402581 1.30307,-1.10210101 1.45443,-1.14711216 4.49895,-1.33775969 2.96526,-0.1856782 3.23842,-0.1515563 4.646,0.58050065 4.74583,2.46824375 5.73013,6.66906755 2.55455,10.90242155 -0.48758,0.649977 -0.88649,1.513973 -0.88649,1.919994 0,1.796999 4.34745,11.48499 14.4615,32.226347 13.1174,26.900476 18.19135,36.883883 20.42508,40.187845 0.87467,1.29377 1.66721,2.001239 3.07636,2.746127 l 1.89814,1.00339 -0.0597,2.522457 c -0.0327,1.387364 -0.23337,2.707172 -0.44576,2.932927 -0.21234,0.2258 -1.19547,0.748506 -2.18462,1.161679 -2.32705,0.972016 -3.95046,2.557677 -7.73856,7.558531 -8.21664,10.84722 -30.06993,42.25407 -33.25153,47.7881 -1.31783,2.29221 -1.50164,2.87432 -1.6974,5.37514 -0.28819,3.68191 -0.99815,4.40607 -3.80177,3.87769 z m 1.59604,-8.49201 c 1.9656,-1.88025 5.11198,-6.0235 13.07614,-17.21917 12.82386,-18.02718 22.43063,-32.08016 25.65857,-37.533916 1.35477,-2.288939 1.52143,-2.758493 1.16013,-3.268856 -0.59499,-0.840498 -0.52376,-2.830813 0.14563,-4.069232 0.54578,-1.009688 0.53114,-1.153069 -0.38221,-3.739991 -1.80256,-5.105462 -6.62902,-15.337591 -22.45197,-47.59839 -7.72766,-15.755677 -11.886,-24.134296 -12.05369,-24.28707 -0.0496,-0.04523 -1.30595,-0.287444 -2.79173,-0.538234 -3.56042,-0.600976 -4.44983,-0.335244 -6.44749,1.926317 -3.8822,4.395085 -45.762534,57.616975 -54.981276,69.870679 l -2.69758,3.585686 0.542714,1.004032 c 1.244372,2.302083 10.252435,12.069465 11.530086,12.501995 0.688523,0.23308 2.160836,-0.59679 10.133675,-5.712033 10.99072,-7.051419 19.52299,-12.846143 22.029723,-14.961541 2.208055,-1.863331 2.570202,-2.322603 2.841442,-3.603457 0.37876,-1.788469 1.269526,-2.949003 2.834148,-3.692334 1.420111,-0.674721 2.510628,-0.498867 4.065828,0.655599 2.35023,1.744637 2.47838,4.382054 0.2918,6.005227 -0.88415,0.656308 -1.4009,0.783407 -3.185836,0.783613 -3.768835,3.2e-4 -4.238035,0.264387 -26.461305,14.886083 -6.168957,4.058863 -11.265984,7.502173 -11.326701,7.651803 -0.06074,0.14954 6.081451,7.23078 13.649259,15.73586 7.567808,8.50508 16.452231,18.52174 19.743144,22.25925 3.29094,3.7375 6.775169,7.55961 7.742739,8.49359 3.05124,2.94527 4.92822,3.16649 7.33473,0.86449 z M 12.502695,134.16664 c 4.169375,-2.4251 45.700984,-30.22539 45.700984,-30.59116 0,-0.53622 -11.608065,-13.800525 -12.054447,-13.774372 -0.108507,0.0069 -0.650754,0.588637 -1.205045,1.293976 -0.554292,0.705315 -4.760943,6.009188 -9.348093,11.786396 -21.177481,26.67149 -25.363754,31.97248 -25.363754,32.11758 0,0.34692 0.656879,0.10603 2.270355,-0.83242 z m -3.5751328,-0.77901 c 0.8528402,-0.80434 2.6367858,-2.75673 3.9643028,-4.33859 4.651709,-5.54295 28.302566,-35.504599 30.980911,-39.247543 l 0.897982,-1.254976 -0.768553,-0.976918 C 39.805262,82.234769 20.440412,60.522586 16.825926,57.099105 c -1.634165,-1.547829 -3.782022,-2.931759 -4.55003,-2.931759 -1.695816,0 -1.748382,0.287999 -2.5574565,14.005303 -1.9262392,32.659181 -3.3003804,66.677461 -2.6933697,66.677461 0.1935205,0 1.0496419,-0.65812 1.9024924,-1.46248 z M 47.525655,84.976911 c 7.650563,-8.898147 49.536194,-61.840509 56.354115,-71.230165 2.33071,-3.209873 2.07816,-4.4758207 -0.71843,-3.601088 -3.634005,1.136664 -28.300904,11.12526 -63.986324,25.910581 l -21.271917,8.81346 -0.147185,2.471983 c -0.108506,1.82511 -0.344598,2.767356 -0.901875,3.600617 -0.415154,0.620744 -0.754821,1.380403 -0.754821,1.688142 0,0.307738 0.819951,1.567249 1.822104,2.798889 5.114783,6.286012 27.444353,31.01764 27.983536,30.993777 0.215715,-0.0092 0.944993,-0.660316 1.620693,-1.446196 z"
       id="path92"
       inkscape:connector-curvature="0" />
  </g>
</svg>
