<?xml version="1.0" encoding="UTF-8" standalone="no"?>
<svg
   xmlns:dc="http://purl.org/dc/elements/1.1/"
   xmlns:cc="http://creativecommons.org/ns#"
   xmlns:rdf="http://www.w3.org/1999/02/22-rdf-syntax-ns#"
   xmlns:svg="http://www.w3.org/2000/svg"
   xmlns="http://www.w3.org/2000/svg"
   xmlns:xlink="http://www.w3.org/1999/xlink"
   xmlns:sodipodi="http://sodipodi.sourceforge.net/DTD/sodipodi-0.dtd"
   xmlns:inkscape="http://www.inkscape.org/namespaces/inkscape"
   version="1.0"
   width="459.000000pt"
   height="270.000000pt"
   viewBox="0 0 459.000000 270.000000"
   preserveAspectRatio="xMidYMid meet"
   id="svg161"
   sodipodi:docname="stars1.svg">
  <metadata
     id="metadata167">
    <rdf:RDF>
      <cc:Work
         rdf:about="">
        <dc:format>image/svg+xml</dc:format>
        <dc:type
           rdf:resource="http://purl.org/dc/dcmitype/StillImage" />
      </cc:Work>
    </rdf:RDF>
  </metadata>
  <defs
     id="defs165">
    <linearGradient
       inkscape:collect="always"
       id="linearGradient231">
      <stop
         style="stop-color:#00ff00;stop-opacity:1;"
         offset="0"
         id="stop227" />
      <stop
         style="stop-color:#008000;stop-opacity:1"
         offset="1"
         id="stop229" />
    </linearGradient>
    <linearGradient
       inkscape:collect="always"
       id="linearGradient217">
      <stop
         style="stop-color:#00ff00;stop-opacity:1;"
         offset="0"
         id="stop213" />
      <stop
         style="stop-color:#00ff00;stop-opacity:0;"
         offset="1"
         id="stop215" />
    </linearGradient>
    <linearGradient
       inkscape:collect="always"
       xlink:href="#linearGradient217"
       id="linearGradient205"
       x1="607.36566"
       y1="291.02261"
       x2="612"
       y2="307.33334"
       gradientUnits="userSpaceOnUse" />
    <linearGradient
       inkscape:collect="always"
       xlink:href="#linearGradient231"
       id="linearGradient225"
       x1="223.5162"
       y1="358.57495"
       x2="242.60181"
       y2="356.04462"
       gradientUnits="userSpaceOnUse" />
  </defs>
  <sodipodi:namedview
     pagecolor="#ffffff"
     bordercolor="#666666"
     borderopacity="1"
     objecttolerance="10"
     gridtolerance="10"
     guidetolerance="10"
     inkscape:pageopacity="0"
     inkscape:pageshadow="2"
     inkscape:window-width="640"
     inkscape:window-height="480"
     id="namedview163"
     showgrid="false" />
  <g
     transform="translate(0.000000,270.000000) scale(0.100000,-0.100000)"
     fill="#000000"
     stroke="none"
     id="g159">
    <path
       d="M1 1763 c0 -519 4 -929 9 -917 17 42 68 74 118 74 l47 0 299 641 299 641 -17 30 c-15 24 -16 34 -6 58 15 37 60 56 92 39 12 -7 28 -18 33 -26 8 -11 113 5 605 94 l596 107 14 30 c21 42 64 54 99 29 14 -11 27 -32 29 -47 4 -31 -21 -76 -43 -76 -17 0 -12 22 -120 -589 -48 -266 -83 -487 -78 -491 10 -9 345 -71 351 -65 3 2 85 178 183 391 162 350 178 389 164 404 -37 41 -2 110 55 110 42 0 70 -31 70 -77 0 -34 7 -44 59 -90 l59 -53 176 246 176 246 -20 33 c-29 47 -26 106 7 145 14 18 36 36 47 40 12 5 -727 9 -1641 9 l-1663 1 1 -937z"
       id="path129" />
    <path
       d="M3406 2690 c11 -4 33 -22 47 -40 36 -42 37 -103 2 -154 -14 -20 -25 -39 -25 -41 0 -2 93 -183 206 -402 114 -219 212 -409 219 -422 12 -23 17 -19 211 170 189 184 199 195 196 227 -7 69 70 108 116 59 29 -31 28 -65 -5 -99 l-26 -27 57 -693 c31 -381 56 -696 56 -700 0 -5 7 -8 15 -8 29 0 76 -31 95 -63 20 -32 20 -27 20 1086 l0 1117 -602 -1 c-337 0 -594 -4 -582 -9z"
       id="path131" />
    <path
       d="M1495 2380 c-297 -55 -555 -102 -573 -105 -18 -3 -36 -14 -39 -23 -11 -31 -36 -52 -62 -52 -25 0 -42 -35 -328 -645 l-301 -645 29 -31 c16 -17 29 -38 29 -46 0 -11 7 -13 27 -9 16 3 381 49 813 102 432 54 788 100 792 103 10 8 60 302 53 309 -3 3 -153 33 -333 67 l-327 62 -28 -24 c-35 -28 -57 -29 -91 -2 -50 40 -21 119 44 119 32 0 70 -30 70 -55 0 -8 10 -17 23 -20 42 -10 652 -124 653 -122 1 1 44 243 97 537 59 334 91 536 85 539 -6 2 -19 12 -29 22 -11 11 -29 19 -41 18 -13 0 -266 -45 -563 -99z"
       id="path133" />
    <path
       d="M3108 2211 l-176 -246 316 -317 c174 -175 321 -318 326 -318 4 0 68 60 142 133 l134 132 -218 422 c-120 232 -220 424 -222 426 -3 2 -32 7 -65 9 l-60 6 -177 -247z"
       id="path135" />
    <path
       d="M2760 2070 c-8 -5 -24 -10 -35 -10 -16 -1 -51 -68 -195 -381 -96 -209 -176 -384 -178 -389 -2 -6 12 -10 30 -10 34 0 40 7 258 313 123 171 233 324 244 340 l20 27 -59 60 c-64 65 -63 64 -85 50z"
       id="path137" />
    <path
       d="M4081 1782 l-203 -197 266 -514 c146 -283 268 -517 271 -519 26 -27 23 56 -31 714 -32 384 -58 700 -58 700 -1 1 -10 4 -21 8 -16 5 -60 -33 -224 -192z"
       id="path139" />
    <path
       d="M2677 1608 c-204 -284 -236 -334 -220 -340 10 -4 118 -26 240 -48 l222 -41 20 20 c27 27 82 28 104 3 23 -26 21 -75 -3 -97 -18 -16 -43 -20 -93 -13 -8 1 -260 -200 -561 -447 -411 -337 -544 -451 -536 -460 15 -18 15 -78 0 -114 -6 -17 -26 -39 -44 -51 l-31 -20 1408 0 1407 0 0 198 0 197 -20 -31 c-63 -99 -225 -60 -233 55 -2 27 -7 33 -37 41 -19 5 -298 72 -619 150 l-585 140 -21 -20 c-39 -37 -99 -21 -117 31 -9 23 19 79 39 81 10 1 32 2 49 2 28 1 65 33 271 233 l240 232 -316 315 c-174 174 -319 316 -321 316 -3 0 -113 -150 -243 -332z"
       id="path141" />
    <path
       d="M3727 1441 l-135 -132 390 -387 c214 -213 394 -388 399 -390 5 -2 9 1 9 8 0 6 -110 223 -244 483 -134 260 -253 490 -263 511 l-20 39 -136 -132z"
       id="path143" />
    <path
       d="M1937 1189 c-15 -84 -26 -154 -23 -156 4 -4 306 34 312 40 2 1 24 47 48 100 44 95 45 97 23 102 -12 2 -85 16 -162 30 -77 15 -147 28 -156 31 -12 3 -20 -23 -42 -147z"
       id="path145" />
    <path
       d="M3334 1060 c-132 -127 -240 -238 -242 -248 -1 -9 2 -23 6 -30 5 -7 262 -74 588 -152 318 -77 596 -144 617 -149 33 -8 39 -6 48 11 10 19 -27 59 -377 409 -214 214 -392 389 -395 389 -4 0 -114 -104 -245 -230z"
       id="path147" />
    <path
       d="M2319 1221 c-12 -25 -32 -70 -45 -98 -13 -29 -20 -53 -16 -53 9 0 16 10 95 121 l47 67 -30 4 c-28 4 -32 1 -51 -41z"
       id="path149" />
    <path
       d="M2362 1168 c-33 -46 -59 -84 -58 -86 2 -1 138 15 304 35 165 21 300 39 298 41 -3 2 -471 92 -482 92 -1 0 -29 -37 -62 -82z"
       id="path151" />
    <path
       d="M2563 1091 c-155 -20 -283 -38 -285 -41 -57 -77 -57 -77 -51 -127 5 -45 3 -52 -18 -67 -35 -24 -74 -20 -98 10 -12 15 -21 35 -21 46 0 27 44 68 73 68 21 0 47 32 47 59 0 6 -302 -26 -306 -32 0 -1 -29 -162 -63 -357 -35 -195 -65 -365 -68 -377 -4 -17 2 -25 27 -38 20 -10 36 -13 43 -7 101 79 1083 887 1085 893 6 15 -70 9 -365 -30z"
       id="path153" />
    <path
       d="M1037 901 c-768 -98 -794 -102 -784 -136 2 -5 310 -138 685 -294 l682 -283 35 31 c23 20 46 31 65 31 17 0 30 2 30 6 0 3 29 168 65 368 36 199 65 366 65 369 0 13 -79 4 -843 -92z"
       id="path155" />
    <path
       d="M1 383 l-1 -383 853 1 c468 0 843 4 832 9 -40 16 -68 58 -73 108 l-4 49 -677 281 c-373 155 -682 282 -688 282 -6 0 -13 -7 -16 -14 -3 -8 -20 -22 -38 -32 -63 -32 -154 -1 -179 61 -5 11 -9 -151 -9 -362z"
       id="path157" />
  </g>
  <path
     style="fill:#00ff00;stroke-width:0.67164177"
     d="m 33.161165,247.64854 c -0.536946,-1.28509 -2.378288,-3.8354 -4.09187,-5.66736 l -3.115606,-3.33083 18.282973,-39.16473 C 104.90117,69.533633 106.35891,66.626866 110.86546,66.626866 c 2.23387,0 4.94352,-2.248636 6.58362,-5.463485 0.74354,-1.457468 2.01963,-2.942439 2.83574,-3.299936 1.49284,-0.65394 42.47489,-8.274692 104.41219,-19.415806 45.53135,-8.190058 49.7725,-8.88009 51.44147,-8.3695 0.7981,0.244159 2.77417,1.516744 4.39129,2.827967 l 2.94021,2.38404 -0.42273,4.548524 c -0.87321,9.395281 -22.53615,134.15237 -23.79023,137.00809 -0.42206,0.96111 -2.40478,0.7235 -18.27195,-2.18974 -44.44893,-8.16088 -68.2897,-12.86384 -69.68283,-13.74599 -0.83116,-0.52631 -1.5112,-1.38013 -1.5112,-1.89737 0,-1.35494 -3.196,-4.95498 -5.41978,-6.10495 -2.56332,-1.32554 -7.0329,-1.24152 -9.43488,0.17737 -2.70832,1.59983 -4.8916,6.26384 -4.331,9.25205 0.78631,4.1914 5.521,8.39321 9.45766,8.39321 2.1609,0 3.87923,-0.86533 7.45626,-3.75492 l 2.76558,-2.23408 29.47323,5.6125 c 55.06048,10.485 58.01801,11.13163 58.01801,12.68498 0,3.89466 -6.07842,38.32219 -6.91348,39.15724 -0.44711,0.44711 -6.18074,1.29652 -28.79099,4.26525 -21.44901,2.81624 -186.388123,23.52276 -187.372159,23.52276 -0.309134,0 -1.001381,-1.05144 -1.538326,-2.33653 z"
     id="path169"
     inkscape:connector-curvature="0"
     transform="scale(0.75)" />
  <path
     style="fill:#00ff00;stroke-width:0.67164177"
     d="m 0.53731343,317.92538 c 0,-22.84552 0.19779811,-44.77007 0.43955141,-48.72122 l 0.43955136,-7.18391 1.9791524,2.40106 c 2.6277486,3.18791 7.8983114,5.78043 12.6224304,6.2088 5.318308,0.48225 9.895438,-1.14944 13.548213,-4.82975 l 2.874087,-2.89575 10.746268,4.3419 c 9.432107,3.81093 92.447223,38.12992 150.447763,62.19609 l 20.14925,8.36053 0.78218,5.42825 c 0.91774,6.36901 3.48089,11.62691 6.75127,13.84919 l 2.19917,1.49438 -19.24797,0.44387 c -10.58638,0.24413 -60.75663,0.44387 -111.48944,0.44387 H 0.53731343 Z"
     id="path171"
     inkscape:connector-curvature="0"
     transform="scale(0.75)" />
  <path
     style="fill:#00ff00;stroke-width:0.67164177"
     d="M 193.95703,325.4261 C 102.64585,287.53115 53.445941,266.80679 39.996269,260.57357 c -3.232276,-1.49799 -5.876866,-3.12251 -5.876866,-3.61004 0,-2.84909 9.39034,-4.51115 69.514927,-12.30389 66.4578,-8.61359 128.00386,-16.11862 141.26016,-17.22549 l 5.58853,-0.46663 -0.39835,2.2737 c -0.21909,1.25054 -3.42728,19.3502 -7.12931,40.22147 -3.70203,20.87127 -7.43988,41.98953 -8.30635,46.92947 -0.93526,5.33222 -1.94664,9.21693 -2.48906,9.56061 -0.50252,0.31839 -1.98635,0.58353 -3.29739,0.58919 -2.43553,0.0105 -5.5747,1.74742 -10.52043,5.82099 l -2.56986,2.11667 z"
     id="path173"
     inkscape:connector-curvature="0"
     transform="scale(0.75)" />
  <path
     style="fill:url(#linearGradient205);stroke-width:0.67164177;fill-opacity:1"
     d="M 0.9802303,225.18694 C 0.73792363,213.89121 0.53914191,158.58549 0.5384931,102.28534 L 0.53731343,-0.07858367 204.21269,0.3684596 C 316.23414,0.61433342 414.87487,1.0090453 423.4143,1.2455972 l 15.52624,0.4300942 -2.28698,2.0080028 c -1.25785,1.1044014 -3.1066,3.4021845 -4.10833,5.106184 -1.54341,2.6253978 -1.82135,3.8668778 -1.82135,8.1354948 0,4.445256 0.25656,5.490028 2.18284,8.889079 1.20056,2.118472 2.18283,4.185036 2.18283,4.592366 0,0.562883 -39.10294,55.762184 -45.00459,63.530313 -1.09873,1.446226 -1.12804,1.429912 -7.29777,-4.062332 -7.45886,-6.639824 -8.5431,-8.189704 -9.15493,-13.086638 -0.2597,-2.078617 -0.90907,-4.624139 -1.44304,-5.656715 -1.37813,-2.665 -4.72459,-4.499093 -8.21442,-4.502068 -7.35069,-0.0062 -11.70315,7.474621 -8.18878,14.074656 1.13269,2.127211 1.15563,2.598025 0.27163,5.574762 -0.53105,1.788226 -3.47908,8.903129 -6.55118,15.810894 -7.1618,16.10364 -33.3123,72.71667 -36.7857,79.63711 l -2.65332,5.28651 -4.1494,-0.46629 c -4.58217,-0.51493 -29.81999,-5.12919 -37.32824,-6.82476 -2.99511,-0.67639 -4.76891,-1.41088 -4.76891,-1.97471 0,-3.60665 4.5288,-30.91393 13.80626,-83.24755 10.04417,-56.658505 10.63485,-59.440299 12.62156,-59.440299 1.2062,0 4.2444,-3.3292 5.09661,-5.584768 1.7097,-4.525109 0.0308,-9.333162 -4.14889,-11.881546 -4.62179,-2.817941 -9.50945,-1.028741 -12.88226,4.71574 l -2.13649,3.638809 -25.4881,4.571548 C 161.17955,46.574013 141.31022,50.060124 130.5,51.606972 l -12.08955,1.72991 -3.59361,-2.422173 c -3.78606,-2.55188 -6.94128,-3.093736 -9.71547,-1.668465 -2.74566,1.410613 -5.180885,4.213656 -5.863669,6.749321 -0.602302,2.236761 -0.445944,2.995683 1.350229,6.55389 l 2.03141,4.024198 -39.769927,85.249977 -39.769927,85.24998 -5.730042,0.29065 c -6.666625,0.33816 -9.9284329,1.71883 -13.5617309,5.74046 l -2.3669253,2.6199 z"
     id="path175"
     inkscape:connector-curvature="0"
     transform="scale(0.75)" />
  <path
     style="fill:#00ff00;stroke-width:0.67164177"
     d="m 241.81483,329.07027 c -2.98347,-0.95662 -5.71071,-3.5753 -5.25343,-5.04432 0.35721,-1.14751 9.88695,-54.20278 14.91036,-83.01096 2.24605,-12.88058 2.72733,-14.74175 3.92827,-15.19091 1.40153,-0.52419 23.15755,-3.02567 33.1037,-3.80624 5.42316,-0.4256 5.54105,-0.40279 5.54105,1.07216 0,2.03739 -4.12883,6.07418 -6.21266,6.07418 -1.95522,0 -6.46847,3.11838 -8.08586,5.58683 -1.51551,2.31296 -1.45088,4.6217 0.22113,7.89911 3.1342,6.14354 11.64797,7.24384 16.29743,2.10624 1.0279,-1.13581 1.17887,-2.34209 1.00588,-8.03741 l -0.20354,-6.70103 3.27198,-4.75203 c 1.79958,-2.61361 3.70595,-4.91855 4.23636,-5.12209 1.20393,-0.46199 34.80278,-5.06061 56.29763,-7.70536 20.70721,-2.54784 28.54478,-3.15234 28.54478,-2.20163 0,0.81318 -5.73953,5.69013 -38.95522,33.10076 -64.24634,53.01808 -105.40036,86.59907 -106.01237,86.50431 -0.24357,-0.0378 -1.42954,-0.38494 -2.63549,-0.77161 z"
     id="path177"
     inkscape:connector-curvature="0"
     transform="scale(0.75)" />
  <path
     style="fill:#00ff00;stroke-width:0.67164177"
     d="m 255.76119,219.92397 c 0,-2.68086 4.5546,-28.68267 5.82587,-33.25936 0.59278,-2.13408 1.28913,-4.01077 1.54744,-4.17041 0.2583,-0.15965 7.39434,1.0443 15.85787,2.67542 8.46352,1.63113 18.2595,3.50781 21.76882,4.17042 5.45126,1.02926 6.40935,1.40568 6.57798,2.58437 0.1817,1.27 -8.03893,20.15726 -10.2266,23.49608 -1.08771,1.66005 -2.92995,2.01831 -24.07686,4.68213 -17.23306,2.1708 -17.27452,2.17038 -17.27452,-0.17865 z"
     id="path179"
     inkscape:connector-curvature="0"
     transform="scale(0.75)" />
  <path
     style="fill:#00ff00;stroke-width:0.67164177"
     d="m 308.73649,213.88433 c 0.68155,-1.26253 10.90143,-15.50314 13.26904,-18.48939 l 1.4309,-1.80478 19.05417,3.60906 c 40.93128,7.75281 42.39979,8.0588 41.12846,8.56989 -2.08994,0.8402 -69.10856,9.29059 -73.68205,9.29059 -1.54159,0 -1.73356,-0.18795 -1.20052,-1.17537 z"
     id="path181"
     inkscape:connector-curvature="0"
     transform="scale(0.75)" />
  <path
     style="fill:#00ff00;stroke-width:0.67164177"
     d="m 301.76818,215.0597 c 1.43255,-5.05631 9.98792,-22.55484 11.215,-22.93836 0.48126,-0.15041 2.1399,-0.11331 3.68585,0.0824 l 2.81082,0.35592 -7.63932,10.68672 c -4.20164,5.87769 -8.2938,11.31799 -9.0937,12.08955 l -1.45438,1.40284 z"
     id="path183"
     inkscape:connector-curvature="0"
     transform="scale(0.75)" />
  <path
     style="fill:#00ff00;stroke-width:0.67164177"
     d="m 314.19403,188.19408 c 0,-0.36939 6.47113,-14.80129 14.38028,-32.0709 29.91456,-65.318336 32.66122,-70.690344 36.14328,-70.690344 0.69276,0 2.16638,-0.468931 3.2747,-1.042069 1.10833,-0.573138 2.53123,-0.878271 3.16199,-0.678074 0.63077,0.200197 4.39794,3.625202 8.3715,7.611121 l 7.22466,7.247126 -24.52487,34.23319 c -40.86353,57.03963 -40.07828,56.06154 -45.00915,56.06154 -1.66232,0 -3.02239,-0.30222 -3.02239,-0.67159 z"
     id="path185"
     inkscape:connector-curvature="0"
     transform="scale(0.75)" />
  <path
     style="fill:url(#linearGradient225);stroke-width:0.67164177;fill-opacity:1"
     d="m 242.60181,356.04461 c 2.90332,-2.65346 3.96712,-4.18315 4.75562,-6.83832 1.17653,-3.96181 1.32341,-9.66773 0.317,-12.31479 -0.63488,-1.66986 -0.43548,-2.10911 2.18283,-4.80841 8.71719,-8.98682 98.93147,-83.37982 135.84059,-112.01762 l 6.01874,-4.66995 5.88075,-0.36585 c 6.71234,-0.41758 8.72115,-1.63201 10.0531,-6.07764 2.99353,-9.99156 -8.27945,-15.843 -16.5434,-8.58716 l -2.31844,2.03563 -23.69654,-4.38377 c -29.28286,-5.41721 -37.46519,-7.14842 -37.46519,-7.92685 0,-2.3674 6.76994,-12.49343 29.78143,-44.5451 23.26585,-32.40594 31.35045,-43.3209 32.08735,-43.3209 0.71329,0 83.87748,82.53812 83.87748,83.24603 0,0.50328 -43.65609,42.74484 -53.31956,51.59191 -9.85352,9.02107 -11.11058,9.79465 -16.43436,10.11362 -4.97687,0.29818 -6.97018,1.53119 -8.57891,5.30672 -2.84882,6.68589 1.37576,12.95068 8.73311,12.95068 2.39912,0 3.62465,-0.47353 6.08394,-2.35075 1.6938,-1.29291 3.42616,-2.35075 3.84967,-2.35075 0.4235,0 14.09719,3.18606 30.38597,7.08014 86.35771,20.6451 130.51723,31.45877 131.84204,32.28514 0.91941,0.57351 1.63513,1.87879 1.88996,3.4468 1.58659,9.76251 8.12211,15.60764 17.45113,15.60764 6.49662,0 10.98334,-2.57408 15.24462,-8.74598 1.08172,-1.56673 1.14195,-0.3521 1.17538,23.70313 l 0.0352,25.35448 H 425.29662 238.8619 Z"
     id="path187"
     inkscape:connector-curvature="0"
     transform="scale(0.75)" />
  <path
     style="fill:#00ff00;stroke-width:0.67164177"
     d="m 575.12687,295.84619 c -0.73881,-0.17949 -25.06903,-6.04804 -54.06717,-13.04122 -51.49286,-12.418 -91.67907,-22.45957 -102.38058,-25.58244 -4.73154,-1.38074 -5.38532,-1.76795 -5.83708,-3.45714 -0.46722,-1.747 0.0835,-2.54189 6.74793,-9.7394 5.93231,-6.40684 34.70705,-34.3686 53.54945,-52.0365 l 4.13196,-3.8744 39.12295,38.82678 c 39.6568,39.35658 59.12821,59.4162 62.2436,64.12387 1.6603,2.50887 1.67723,2.63927 0.51021,3.92881 -1.2237,1.35218 -1.6176,1.4356 -4.02127,0.85164 z"
     id="path189"
     inkscape:connector-curvature="0"
     transform="scale(0.75)" />
  <path
     style="fill:#00ff00;stroke-width:0.67164177"
     d="m 555.27561,260.56778 c -16.04823,-15.72969 -39.63689,-39.1287 -52.41926,-51.99779 l -23.24066,-23.39835 17.22736,-16.74556 c 9.47505,-9.21007 17.52115,-16.8435 17.88022,-16.96319 0.35907,-0.11969 2.26565,3.03335 4.23685,7.00676 1.9712,3.97341 10.76798,21.12736 19.54842,38.1199 26.83584,51.9347 46.48339,90.96451 46.20771,91.79154 -0.14412,0.43236 -13.39241,-12.08362 -29.44064,-27.81331 z"
     id="path191"
     inkscape:connector-curvature="0"
     transform="scale(0.75)" />
  <path
     style="fill:#00ff00;stroke-width:0.67164177"
     d="m 586.6797,282.05597 c -1.28229,-2.30877 -13.13122,-25.05224 -26.33096,-50.54104 -13.19974,-25.48881 -28.20922,-54.46185 -33.35441,-64.38455 -5.14518,-9.92269 -9.26536,-18.23465 -9.15595,-18.47102 0.30294,-0.65443 39.07787,-38.17049 45.19893,-43.73149 7.54261,-6.852468 9.79686,-8.277165 11.85721,-7.493819 l 1.64998,0.627322 3.19607,38.853637 c 5.61634,68.27609 8.38735,102.9388 9.45646,118.29121 1.16305,16.70152 1.36079,31.04751 0.42794,31.04751 -0.33761,0 -1.66298,-1.88899 -2.94527,-4.19776 z"
     id="path193"
     inkscape:connector-curvature="0"
     transform="scale(0.75)" />
  <path
     style="fill:#00ff00;stroke-width:0.67164177"
     d="m 607.36567,291.02262 c -2.75685,-3.03333 -8.22789,-6.09395 -10.91418,-6.10561 -0.83115,-0.003 -1.51119,-0.40223 -1.51119,-0.88581 0,-1.13456 -6.20758,-78.19505 -11.13997,-138.2907 l -3.84271,-46.81921 2.41603,-2.674256 c 1.32882,-1.470841 2.91844,-3.645806 3.5325,-4.833262 2.86755,-5.545229 -2.06769,-12.69233 -8.76436,-12.69233 -5.32887,0 -9.06453,4.189325 -9.06968,10.171108 -10e-4,1.739485 -0.56301,3.871679 -1.38829,5.271629 -1.45691,2.4714 -29.16949,30.125111 -42.13675,42.047241 -4.1771,3.84043 -8.10621,6.97888 -8.73135,6.97432 -1.12926,-0.008 -8.33538,-13.59307 -44.85648,-84.562531 l -13.27787,-25.802165 1.49214,-2.406791 c 3.63998,-5.87124 5.04864,-9.735948 5.03887,-13.824318 -0.0116,-4.832095 -1.24983,-7.5430739 -5.40325,-11.8294471 l -3.00164,-3.0977211 3.91342,-0.4139686 c 2.15238,-0.2276828 37.25155,-0.61925411 77.99816,-0.87015846 l 74.08474,-0.45618976 -0.2148,145.68430002 c -0.13824,93.75167 -0.45043,146.16332 -0.87579,147.02808 -0.61749,1.25537 -0.83776,1.14929 -3.34755,-1.61221 z"
     id="path195"
     inkscape:connector-curvature="0"
     transform="scale(0.75)" />
  <path
     style="fill:#00ff00;stroke-width:0.67164177"
     d="M 433.61395,140.00373 391.42043,97.858209 414.30307,65.955224 c 12.58544,-17.546642 23.09103,-32.250233 23.34575,-32.674647 0.34748,-0.578978 2.45976,-0.5535 8.45926,0.102033 6.41669,0.701118 8.14135,1.115161 8.73134,2.096157 0.40436,0.672355 10.63543,20.271963 22.73569,43.554684 12.10027,23.282719 25.00034,48.074759 28.66683,55.093419 l 6.66634,12.76119 -17.79947,17.6306 c -9.78971,9.69683 -18.1374,17.63059 -18.55041,17.63059 -0.41301,0 -19.73801,-18.96548 -42.94445,-42.14552 z"
     id="path197"
     inkscape:connector-curvature="0"
     transform="scale(0.75)" />
  <path
     style="fill:none;stroke:#000000;stroke-width:0.75px;stroke-linecap:butt;stroke-linejoin:miter;stroke-opacity:1"
     d="m 1.0655908,184.29346 -0.00328,12.22173 v 0"
     id="path233"
     inkscape:connector-curvature="0" />
  <path
     style="fill:none;stroke:#000000;stroke-width:0.75px;stroke-linecap:butt;stroke-linejoin:miter;stroke-opacity:1"
     d="m 167.63715,268.93121 11.50927,0.66581 v 0"
     id="path235"
     inkscape:connector-curvature="0" />
  <path
     style="fill:none;stroke:#000000;stroke-width:0.75px;stroke-linecap:butt;stroke-linejoin:miter;stroke-opacity:1"
     d="M 455.52425,218.26697 459,230.5"
     id="path237"
     inkscape:connector-curvature="0" />
  <path
     style="fill:#800000;stroke:#000000;stroke-width:0.75px;stroke-linecap:butt;stroke-linejoin:miter;stroke-opacity:1"
     d="m 329.2054,1.2567686 12.65022,-0.00969"
     id="path239"
     inkscape:connector-curvature="0" />
  <path
     style="fill:#800000;stroke-width:0.67164177"
     d="m 0.77090796,312.14081 c 0.25073814,-26.14522 0.62482704,-47.8101 0.83130854,-48.1442 0.2064816,-0.33409 1.7304268,0.58528 3.386545,2.04305 3.6304989,3.1957 7.9292585,4.7714 12.9629735,4.75156 4.48696,-0.0177 8.251011,-1.59097 12.077774,-5.04822 l 2.778309,-2.51003 31.383404,12.92653 c 78.240868,32.22669 148.298148,61.32476 148.817438,61.81086 0.31259,0.29261 0.95696,2.76983 1.43192,5.50493 0.97594,5.62006 3.52172,11.18467 6.01368,13.14485 l 1.6779,1.31983 -3.50265,0.39882 c -1.92646,0.21936 -51.83531,0.61031 -110.90856,0.8688 L 0.31502042,359.67756 Z"
     id="path241"
     inkscape:connector-curvature="0"
     transform="scale(0.75)" />
  <path
     style="fill:#800000;stroke-width:0.50373131"
     d="m 110.0242,291.27576 c -4.39225,-0.15818 -4.67652,-0.23948 -6.60299,-1.88846 -2.52018,-2.15718 -3.985137,-5.50827 -4.441977,-10.16098 l -0.35432,-3.60855 -9.1323,-3.77103 c -5.02276,-2.07407 -25.7932,-10.68318 -46.15654,-19.13136 C 5.7023025,237.1022 -30.855856,222.0304 -35.592792,220.17546 l -2.613561,-1.02345 -2.459615,2.40839 c -4.128244,4.04227 -9.863359,4.70809 -15.258874,1.77148 -4.155911,-2.26193 -4.507749,-3.07363 -4.507749,-10.39957 0,-7.19931 0.292496,-7.87812 4.444491,-10.31459 1.945999,-1.14195 3.138733,-1.42672 6.855459,-1.63677 l 4.499577,-0.2543 29.908044,-64.15191 29.908038,-64.151911 -1.65456,-3.191207 -1.65456,-3.191206 1.118685,-2.302598 c 1.283168,-2.641138 3.626715,-4.303167 6.071565,-4.305923 1.86495,-0.0021 3.181665,0.581894 5.31633,2.357941 1.299998,1.081595 1.756448,1.169816 4.533585,0.876227 5.04621,-0.533467 25.03201,-3.89138 53.46119,-8.982278 14.68376,-2.629467 34.404837,-6.15656 43.824617,-7.837982 9.41977,-1.681423 17.60027,-3.161502 18.17887,-3.289065 0.62091,-0.13689 1.41954,-1.046947 1.94887,-2.220805 2.61594,-5.801122 8.78324,-6.78777 11.81057,-1.88946 1.26525,2.047215 1.3493,4.335145 0.23975,6.526278 -1.16278,2.29627 -2.21895,3.375171 -3.30405,3.375171 -0.51921,0 -1.13945,0.519714 -1.38219,1.158174 -1.69222,4.450869 -17.87185,97.064844 -18.27661,104.617304 l -0.14805,2.76241 5.03732,1.12453 c 6.74117,1.5049 23.97529,4.64809 27.54365,5.02346 l 2.86081,0.30093 2.34527,-4.97941 c 6.96925,-14.79698 26.93647,-58.27096 29.33565,-63.871531 3.11766,-7.277764 3.70843,-10.155868 2.45262,-11.948779 -2.5712,-3.670907 0.81976,-9.504252 5.52489,-9.504252 4.2965,0 6.41147,2.119359 7.04318,7.057785 0.19454,1.520735 0.64937,3.350946 1.01075,4.067137 0.60344,1.195904 10.31102,10.535525 10.95059,10.535525 0.15346,0 8.23284,-11.103513 17.95416,-24.674471 l 17.67513,-24.674471 -1.31357,-2.080844 c -3.91557,-6.202666 -3.59352,-12.030078 0.9186,-16.621584 1.65136,-1.680419 2.06041,-1.834454 5.68517,-2.140858 7.44651,-0.629461 8.56616,-0.496861 10.55587,1.250123 2.97652,2.613419 4.45476,5.637283 4.49612,9.197153 0.0362,3.124228 -0.44383,4.427012 -3.74337,10.157517 l -1.1775,2.045025 9.38141,18.356094 c 23.79357,46.555551 33.44269,64.696131 34.49651,64.854241 0.67406,0.10113 2.22818,-0.87636 4.47896,-2.8171 5.82364,-5.02148 32.80168,-31.792918 34.01245,-33.751974 0.7068,-1.143632 1.26922,-3.087461 1.47859,-5.110259 0.3005,-2.903271 0.5382,-3.448142 2.14779,-4.923223 1.45889,-1.336974 2.22922,-1.658652 3.97201,-1.658652 3.21895,0 6.08977,2.30178 6.69921,5.371317 0.44978,2.265487 -0.0914,3.534059 -2.69504,6.317583 l -2.28847,2.446557 2.62221,31.845521 c 1.44221,17.51504 3.98072,48.84645 5.64112,69.62536 1.66041,20.77892 3.11766,38.0632 3.23832,38.40952 0.12066,0.34631 0.7487,0.62966 1.39563,0.62966 1.67058,0 6.34088,2.43308 7.12203,3.71037 0.36162,0.5913 1.39743,3.72362 2.3018,6.96073 l 1.64431,5.88565 -1.18448,1.92218 c -2.59272,4.20752 -6.02483,6.17827 -10.77641,6.18793 -5.49018,0.0111 -10.631,-3.48512 -11.81496,-8.03537 -0.28955,-1.1128 -0.75412,-2.9029 -1.03237,-3.97799 -0.36685,-1.41741 -0.88609,-2.10573 -1.88899,-2.50408 -2.36964,-0.94122 -120.25647,-29.29121 -121.80067,-29.29121 -0.47276,0 -1.73774,0.79338 -2.81106,1.76306 -1.69437,1.53077 -2.29097,1.76306 -4.52796,1.76306 -2.32123,0 -2.77022,-0.19374 -4.53214,-1.95566 -2.30309,-2.3031 -2.56849,-4.43919 -0.94655,-7.61846 1.24249,-2.43549 2.27623,-3.01916 5.34724,-3.01916 4.94693,0 5.62854,-0.56035 33.86467,-27.83961 l 19.81991,-19.14824 -31.60053,-31.28686 C 244.80662,113.052 230.31116,98.810562 229.97477,98.612127 c -0.6992,-0.412455 -6.63377,7.543833 -28.45312,38.146203 -15.28295,21.43485 -18.83987,26.85589 -18.56328,28.29207 0.22306,1.15825 2.55524,1.69457 27.22699,6.26121 l 19.50828,3.6109 1.99638,-1.80361 c 2.33902,-2.11316 4.85853,-2.74068 7.64816,-1.90488 3.20369,0.95985 4.71848,4.58964 3.48062,8.34038 -0.90905,2.75447 -2.94879,3.78933 -7.47343,3.79164 -4.30852,0.002 -2.27802,-1.32593 -22.25184,14.55462 -36.37455,28.92023 -88.83876,72.62789 -90.17466,75.12405 -0.32787,0.61264 -0.3256,1.38004 0.007,2.25399 1.16877,3.07413 0.32862,9.24681 -1.63449,12.0086 -1.30728,1.83917 -4.82901,4.39349 -5.87106,4.25831 -0.44327,-0.0575 -2.87138,-0.17892 -5.3958,-0.26985 z m -7.57372,-19.58959 c 3.00479,-2.70429 4.68943,-3.539 8.00779,-3.96772 1.31599,-0.17002 2.39296,-0.35191 2.39326,-0.40419 0.001,-0.30469 3.636,-20.94307 8.0392,-45.65306 3.07109,-17.23446 4.88441,-28.61301 4.60445,-28.89296 -0.87667,-0.87668 -29.891187,2.48547 -105.834489,12.26389 -51.039337,6.57179 -56.921639,7.63392 -56.921639,10.27796 0,0.99098 1.636813,1.83614 13.726679,7.08768 20.9248385,9.08922 31.6102845,13.57732 102.383392,43.00302 11.35915,4.72285 20.73302,8.59415 20.83084,8.60289 0.0978,0.009 1.344547,-1.03415 2.770517,-2.31751 z m 24.1013,-5.32401 c 10.55781,-8.40551 94.06197,-77.10101 101.77938,-83.72978 1.31586,-1.13024 2.39258,-2.20972 2.39271,-2.39883 5.1e-4,-0.81085 -2.36209,-0.94043 -7.91967,-0.43434 -12.38644,1.12796 -55.10722,6.78918 -56.84697,7.53318 -0.57467,0.24577 -2.16143,2.08154 -3.52611,4.07949 l -2.48125,3.63265 0.13486,4.74647 c 0.0742,2.61057 -0.088,5.16291 -0.36037,5.67186 -0.71681,1.33935 -3.62591,2.5679 -6.08059,2.5679 -1.78942,0 -2.4269,-0.3029 -4.04698,-1.923 -2.07126,-2.07125 -2.78415,-3.89694 -2.29017,-5.8651 0.4074,-1.62319 3.65806,-4.75565 5.30409,-5.11121 3.55331,-0.76755 6.07983,-3.11294 6.07983,-5.64399 0,-1.40498 -0.5329,-1.40852 -13.19434,-0.0876 -15.88529,1.65723 -17.50301,1.94822 -17.78967,3.19988 -0.13538,0.59108 -2.18259,12.06863 -4.54937,25.50566 -2.36677,13.43704 -5.20053,29.33673 -6.29724,35.33267 -2.28216,12.47708 -2.35624,13.54905 -1.01989,14.75842 0.84337,0.76325 4.13073,2.20952 5.17071,2.27486 0.19354,0.0121 2.68702,-1.83697 5.54104,-4.10917 z m 245.72085,-22.06274 c 1.30675,-1.30676 1.29368,-1.40085 -0.60019,-4.32129 -1.52813,-2.35644 -70.66948,-72.22335 -74.53038,-75.31248 l -1.83767,-1.47033 -9.49629,8.91922 c -5.22295,4.90557 -16.12665,15.50964 -24.23043,23.5646 -13.87022,13.78667 -14.73414,14.75174 -14.73414,16.45921 0,0.99761 0.29745,2.06069 0.66099,2.3624 1.39339,1.15641 21.26569,6.22805 80.14784,20.45463 22.18621,5.36044 40.79191,9.85614 41.34602,9.99044 1.84991,0.44839 2.26052,0.36733 3.27425,-0.6464 z m -4.78786,-24.60597 c -13.47815,-26.79064 -43.26852,-84.67947 -43.57034,-84.66614 -0.13854,0.006 -6.37221,6.0087 -13.85262,13.33907 l -13.60074,13.32795 28.20895,27.95471 c 42.89643,42.50981 51.08507,50.36194 51.78758,49.65943 0.45837,-0.45837 -1.6095,-4.97886 -8.97283,-19.61502 z m 13.02955,8.22351 c -0.0729,-9.97437 -0.94357,-21.91785 -6.64532,-91.15749 l -3.35943,-40.795542 -1.41984,-0.68042 c -2.44297,-1.170732 -3.52165,-0.277989 -27.16691,22.483892 -9.07346,8.73448 -16.4972,16.08985 -16.4972,16.34526 0,0.45121 40.56956,79.0158 49.29688,95.46537 2.99456,5.64428 4.58519,8.15172 5.10567,8.04852 0.64337,-0.12754 0.74561,-1.57435 0.68615,-9.70959 z M 35.780096,201.52838 c 78.750564,-9.89137 89.565714,-11.33199 90.256254,-12.02254 1.2036,-1.20359 6.00924,-29.98851 5.14806,-30.83597 -0.44695,-0.43985 -19.48656,-4.25864 -50.068497,-10.04228 -12.65011,-2.3924 -16.03128,-2.87914 -16.67506,-2.40054 -0.44414,0.3302 -1.78156,1.33706 -2.97203,2.23748 -2.74951,2.07958 -4.70991,2.12855 -7.39338,0.18466 -3.73294,-2.70413 -4.11255,-6.78631 -0.92726,-9.9716 1.41506,-1.41505 2.03403,-1.67296 4.01514,-1.67296 1.28819,0 2.99094,0.3355 3.78388,0.74554 1.73774,0.89862 3.54558,3.09012 3.54558,4.29803 0,2.01579 -1.15859,1.74257 38.535447,9.08753 14.96082,2.76834 27.68716,5.13979 28.28076,5.2699 1.27143,0.27867 0.45509,4.1474 7.97342,-37.78718 5.94952,-33.18431 9.98027,-57.048833 10.90958,-64.591465 l 0.63467,-5.151162 -1.98691,-1.754306 c -3.35407,-2.961439 -3.95537,-3.015706 -14.11284,-1.273662 -28.37503,4.866424 -105.541062,19.021232 -106.862142,19.602059 -0.61323,0.269611 -1.674967,1.377322 -2.359432,2.461581 -1.51989,2.407666 -3.392813,3.935792 -5.35095,4.365871 -0.810653,0.178049 -2.06529,1.02653 -2.78808,1.885513 -2.447948,2.909225 -11.6171215,21.999635 -47.299579,98.478721 l -13.454139,28.83658 2.322091,2.64662 c 1.27715,1.45565 2.710301,3.52177 3.18478,4.59139 0.85179,1.9202 0.891378,1.94123 3.133864,1.66505 1.249147,-0.15384 32.9861945,-4.13763 70.526773,-8.85286 z M 144.19037,187.85142 c 11.33728,-1.42839 15.86132,-2.14413 16.24275,-2.56977 1.15844,-1.29269 8.33205,-17.49602 8.33205,-18.81993 0,-1.45003 0.60471,-1.2708 -12.59328,-3.73248 -5.95663,-1.11102 -13.06282,-2.47945 -15.79155,-3.04096 -2.72872,-0.56151 -5.1795,-0.88608 -5.44618,-0.72126 -0.7451,0.46049 -1.41277,2.53417 -2.47219,7.67819 -1.46399,7.10846 -3.49158,19.40717 -3.49158,21.17888 0,1.9953 -0.39447,1.99459 15.21998,0.0273 z m 21.44616,-3.87384 c 3.79218,-4.80894 12.12697,-16.95663 11.89351,-17.33439 -0.1435,-0.23217 -1.45912,-0.42213 -2.92362,-0.42213 -1.90097,0 -2.88735,0.25218 -3.44793,0.88152 -1.04977,1.17855 -7.32275,15.07626 -7.73475,17.13623 -0.43622,2.18113 0.36104,2.08701 2.21279,-0.26123 z m 20.25623,-1.3872 c 18.1835,-2.15986 41.98546,-5.30457 42.27073,-5.5848 0.11544,-0.11339 0.1078,-0.30825 -0.017,-0.43302 -0.17125,-0.17126 -38.62385,-7.60809 -46.887,-9.06807 -1.2218,-0.21588 -1.70544,0.22636 -4.81359,4.40154 -3.4752,4.66822 -7.71969,10.64914 -8.38812,11.81969 -0.5399,0.94549 1.30605,0.82798 17.83495,-1.13534 z m -6.36494,-19.39995 c 2.3317,-2.04727 5.43451,-6.22455 28.75924,-38.71827 l 20.0246,-27.896299 -5.96407,-5.979638 c -5.66538,-5.680191 -7.59257,-6.941685 -8.46017,-5.537871 -0.15018,0.242979 -1.26339,0.691149 -2.47383,0.995942 -2.57258,0.647783 -3.43572,1.770086 -7.33065,9.53164 -7.59206,15.128926 -31.42069,67.547616 -31.09355,68.400156 0.18448,0.48072 1.03837,0.72377 2.54282,0.72377 1.80117,0 2.61949,-0.31118 3.99561,-1.51943 z m 129.48979,-16.37944 c 7.34054,-7.07386 13.47634,-13.07174 13.6351,-13.32862 0.15877,-0.25687 -4.96088,-10.62006 -11.37698,-23.0293 -13.21345,-25.555852 -32.28144,-62.292561 -32.43226,-62.484566 -0.0551,-0.07015 -2.91407,-0.442422 -6.35324,-0.827262 -5.71308,-0.639289 -6.31092,-0.628274 -6.9233,0.127552 -0.92096,1.136704 -34.06602,47.5059 -34.56961,48.362107 -0.6084,1.034408 62.50739,64.041649 64.15197,64.041649 0.28704,0 6.52778,-5.7877 13.86832,-12.86156 z"
     id="path243"
     inkscape:connector-curvature="0" />
  <path
     style="fill:#ffffff;stroke-width:0.67164177"
     d="M 0.85572531,323.36194 C 1.0686174,303.50653 1.4187801,282.0479 1.6338648,275.67609 l 0.3910631,-11.5851 2.545858,2.01636 c 4.1847942,3.31441 7.8949601,4.66747 12.8434591,4.68387 5.204983,0.0172 7.883872,-0.96262 12.407506,-4.53835 l 3.297908,-2.60685 12.085693,4.97987 c 52.566531,21.65985 145.345508,60.11674 155.390018,64.40918 l 12.33418,5.2709 1.54682,6.15301 c 1.74302,6.93346 2.43473,8.5113 4.88136,11.13476 0.94379,1.012 1.53951,2.01648 1.32381,2.23218 -0.32909,0.32909 -152.328306,1.52826 -204.227066,1.61122 l -15.98582519,0.0256 z"
     id="path245"
     inkscape:connector-curvature="0"
     transform="scale(0.75)" />
  <path
     style="fill:#ffffff;stroke-width:0.67164177"
     d="M 180.87313,319.77965 C 162.40299,312.05286 133.10542,299.7995 115.76743,292.54994 54.780152,267.04925 36.057959,258.87967 35.117272,257.35761 33.535176,254.79773 42.158564,253.0834 85.5,247.34154 c 69.54684,-9.21355 164.06792,-20.7194 164.55005,-20.03032 0.0669,0.0956 -0.74446,5.00968 -1.80304,10.92012 -1.05856,5.91045 -4.79056,26.89376 -8.29332,46.62958 -3.50276,19.73582 -6.67514,37.02151 -7.04974,38.41265 -0.63028,2.34069 -0.90671,2.56318 -3.70609,2.98298 -2.96831,0.44512 -9.75813,4.27372 -11.63457,6.56042 -0.50699,0.61783 -1.41371,1.09814 -2.01493,1.06735 -0.60123,-0.0308 -16.20508,-6.37788 -34.67523,-14.10467 z"
     id="path247"
     inkscape:connector-curvature="0"
     transform="scale(0.75)" />
  <path
     style="fill:#ffffff;stroke-width:0.67164177"
     d="m 33.526336,247.79846 c -0.597321,-1.09129 -2.427621,-3.63913 -4.067335,-5.66186 -2.676221,-3.30135 -2.90863,-3.86115 -2.271176,-5.47058 0.630227,-1.59117 41.550877,-89.08227 55.968656,-119.66474 10.673744,-22.640754 20.017999,-41.343949 22.716579,-45.468894 2.2597,-3.454069 3.17541,-4.283571 5.38581,-4.87877 2.51888,-0.678266 4.59576,-2.569037 7.62512,-6.941863 1.02979,-1.486473 2.58646,-1.931016 15.44776,-4.41145 40.65322,-7.840395 136.53498,-24.942094 139.83943,-24.942094 1.27636,0 3.4207,0.934765 5.62158,2.450571 l 3.55812,2.45057 -0.41973,3.090474 c -2.42464,17.852853 -19.39461,116.844166 -22.83067,133.178566 -0.53959,2.56515 -0.98108,4.79526 -0.98108,4.95582 0,0.96796 -8.65522,-0.33676 -35.72059,-5.38467 -49.50749,-9.23353 -53.60777,-10.20671 -53.60777,-12.72351 0,-0.49855 -1.35332,-2.15389 -3.00738,-3.67855 -2.69995,-2.48872 -3.35562,-2.77211 -6.41395,-2.77211 -1.87361,0 -4.29531,0.45959 -5.38155,1.02131 -2.20578,1.14065 -4.67473,5.39354 -4.67473,8.05245 0,4.29956 4.45199,9.04604 8.96152,9.55434 2.71605,0.30614 3.4146,0.0627 6.96455,-2.4275 2.17015,-1.52227 4.43142,-2.76776 5.02503,-2.76776 1.12445,0 39.46306,7.26541 65.799,12.46932 8.37114,1.65412 16.37689,3.40793 17.79055,3.89735 2.45098,0.84855 2.5606,1.01156 2.36131,3.5116 -0.51366,6.44396 -5.89141,35.82479 -6.71159,36.66814 -0.71136,0.73147 -19.44194,3.2019 -120.93269,15.95019 l -94.958737,11.9278 z"
     id="path249"
     inkscape:connector-curvature="0"
     transform="scale(0.75)" />
  <path
     style="fill:#ffffff;stroke-width:0.67164177"
     d="M 1.6640607,240.70941 C 1.4349278,238.51718 1.0380198,183.49097 0.78204291,118.42894 L 0.31663041,0.13432836 32.833689,0.15808762 C 139.75743,0.23621353 432.52661,1.4743764 434.90858,1.8585199 L 437.75,2.3167595 434.7497,5.653809 c -1.73237,1.9268144 -3.3196,4.516898 -3.75587,6.128934 -1.1533,4.261453 -0.40653,10.599106 1.66549,14.13475 0.96722,1.650445 1.75859,3.513273 1.75859,4.139617 0,1.921844 -44.13426,64.062761 -45.51867,64.090157 -1.25592,0.02485 -11.67155,-9.44818 -13.12548,-11.937654 -0.68569,-1.174056 -1.6678,-4.14728 -2.18248,-6.607148 -1.33867,-6.398181 -4.16497,-8.978014 -9.83031,-8.973087 -7.30742,0.006 -11.17145,6.632106 -8.19946,14.059833 1.28627,3.214699 1.13448,3.792385 -4.42281,16.833177 -5.26466,12.354102 -33.28141,73.249262 -39.01396,84.797882 -2.14415,4.31955 -2.34943,4.52097 -4.28908,4.20834 -20.34724,-3.2795 -37.97312,-6.56597 -41.76404,-7.78723 -2.01281,-0.64844 -2.09877,-0.81775 -1.78012,-3.50613 1.3405,-11.30944 20.45374,-120.72224 23.13789,-132.451668 1.27233,-5.559984 1.61258,-6.244613 4.24251,-8.536507 3.54932,-3.093106 4.66545,-5.662053 4.21115,-9.692593 -0.61257,-5.434721 -6.21137,-9.371652 -11.45576,-8.055393 -1.9869,0.498678 -6.14799,4.666761 -7.20393,7.216029 -0.48245,1.16474 -1.44003,2.004586 -2.55361,2.239634 -9.40889,1.985993 -131.39103,23.435274 -145.00251,25.497175 l -10.9074,1.652278 -3.82922,-2.305834 c -5.34298,-3.217379 -8.63956,-3.185565 -12.29696,0.118675 -1.54438,1.395253 -3.006373,3.501709 -3.443881,4.961957 -0.673697,2.248606 -0.559565,2.975764 1.002611,6.387998 0.96956,2.117802 1.76283,4.147303 1.76283,4.510003 0,0.598816 -78.412352,169.091616 -78.973917,169.699496 -0.132145,0.14304 -2.742632,0.49351 -5.801082,0.77882 -6.980294,0.65116 -8.9045914,1.39169 -12.3451118,4.75073 l -2.7544432,2.68922 z"
     id="path251"
     inkscape:connector-curvature="0"
     transform="scale(0.75)" />
  <path
     style="fill:#ffffff;stroke-width:0.67164177"
     d="m 256.17797,220.56383 c -0.37924,-0.61363 3.5949,-24.7768 5.30381,-32.24762 0.61836,-2.70332 1.52324,-5.06822 2.01083,-5.25532 0.84058,-0.32256 29.09655,4.70476 38.77978,6.89972 3.67221,0.8324 4.53358,1.27346 4.53358,2.32135 0,1.42488 -6.21484,16.12979 -8.80041,20.82262 -2.01207,3.65191 -2.80917,3.8848 -21.49747,6.28086 -13.83189,1.77342 -19.75035,2.11647 -20.33012,1.17839 z"
     id="path253"
     inkscape:connector-curvature="0"
     transform="scale(0.75)" />
  <path
     style="fill:#ffffff;stroke-width:0.67164177"
     d="m 240.33758,328.00227 c -3.77225,-2.02308 -3.8259,-2.39963 -1.84969,-12.98428 0.98811,-5.29236 4.82854,-26.69896 8.53428,-47.57023 3.70575,-20.87127 7.05833,-38.74212 7.45017,-39.71301 0.65818,-1.6308 1.18201,-1.82567 6.87752,-2.55853 10.72206,-1.37965 31.5615,-3.34967 32.0752,-3.03219 0.87024,0.53784 -0.11925,2.80576 -1.95962,4.49144 -0.98248,0.89991 -3.20275,2.15692 -4.93393,2.79334 -4.12934,1.51805 -7.93488,5.66086 -7.93345,8.63656 0.001,3.06432 1.94903,6.58795 4.63186,8.3802 4.1849,2.79569 10.89844,1.74077 13.65905,-2.1463 0.27139,-0.38213 0.49807,-3.79737 0.50373,-7.58941 l 0.0103,-6.89461 3.37614,-4.64178 c 2.37608,-3.2668 3.91795,-4.74952 5.20523,-5.00549 10.50074,-2.08803 72.7783,-9.80977 79.118,-9.80977 3.47702,0 3.72818,0.0975 2.88659,1.12093 -1.08662,1.32137 -24.70744,21.01101 -64.39194,53.67528 -64.46553,53.06152 -78.19093,64.08439 -79.79631,64.08439 -0.63661,0 -2.19502,-0.55645 -3.46312,-1.23654 z"
     id="path255"
     inkscape:connector-curvature="0"
     transform="scale(0.75)" />
  <path
     style="fill:#ffffff;stroke-width:0.67164177"
     d="m 308.8209,214.66759 c 0,-0.51466 1.49931,-2.69354 8.62687,-12.53699 3.99878,-5.52249 6.11618,-7.89179 7.05271,-7.89179 1.46286,0 57.70835,10.70136 58.05207,11.04508 0.11633,0.11633 -0.54371,0.40105 -1.46676,0.63272 -2.17089,0.54486 -44.82363,6.04785 -57.48878,7.41711 -5.35634,0.57909 -10.8722,1.2079 -12.25746,1.39737 -1.38526,0.18947 -2.51865,0.16089 -2.51865,-0.0635 z"
     id="path257"
     inkscape:connector-curvature="0"
     transform="scale(0.75)" />
  <path
     style="fill:#ffffff;stroke-width:0.67164177"
     d="m 302.10448,214.83356 c 0,-0.87211 7.13862,-16.35708 9.02302,-19.57256 1.5277,-2.60682 2.08512,-3.03566 3.93439,-3.02683 1.18499,0.006 2.50692,0.23447 2.93762,0.50847 0.52413,0.33344 -1.61008,3.78896 -6.45379,10.44937 -7.12754,9.80082 -9.44124,12.65374 -9.44124,11.64155 z"
     id="path259"
     inkscape:connector-curvature="0"
     transform="scale(0.75)" />
  <path
     style="fill:#ffffff;stroke-width:0.67164177"
     d="m 315.70522,188.42086 c -0.46175,-0.18632 -0.83955,-0.5965 -0.83955,-0.9115 0,-1.14434 30.58768,-67.85102 39.01976,-85.09565 7.14793,-14.618393 8.54352,-16.414506 13.71884,-17.656048 l 3.77111,-0.904673 7.45505,7.45505 7.45504,7.455049 -16.49104,23.055022 c -48.60784,67.95535 -49.13338,68.60247 -54.08921,66.60275 z"
     id="path261"
     inkscape:connector-curvature="0"
     transform="scale(0.75)" />
  <path
     style="fill:#ffffff;stroke-width:0.67164177"
     d="m 243.1281,355.59328 c 4.49268,-4.7101 5.63227,-8.37904 5.03396,-16.20687 l -0.3906,-5.11029 3.59145,-3.40441 C 266.3834,316.63349 389.573,215.7523 391.97112,215.72625 c 4.23659,-0.046 11.98926,-1.52638 13.05774,-2.49333 6.40737,-5.7986 2.506,-16.36009 -6.01848,-16.2928 -2.07421,0.0164 -6.34172,1.91585 -8.92083,3.97067 -1.43698,1.14487 -2.11492,1.24853 -4.70149,0.71888 -1.66231,-0.34041 -14.20522,-2.74071 -27.87313,-5.33402 -13.66792,-2.59331 -25.97249,-5.0347 -27.3435,-5.42532 -2.3619,-0.67293 -2.45644,-0.8057 -1.80116,-2.52922 1.35935,-3.57537 23.699,-35.54435 49.14857,-70.33365 11.54217,-15.77803 11.35239,-15.57102 13.132,-14.32453 2.21621,1.55229 77.84407,76.37077 80.1865,79.32834 l 2.14467,2.70786 -14.10135,13.83073 c -20.76349,20.36504 -42.44294,40.85173 -46.41652,43.86279 -2.82786,2.14287 -4.44688,2.80706 -8.60085,3.52841 -6.91621,1.20103 -9.74687,3.97873 -9.74138,9.55917 0.008,7.95574 8.41536,11.4522 15.96635,6.63996 3.23892,-2.06415 3.78268,-2.20451 6.32629,-1.633 9.12734,2.05078 42.73261,10.05481 85.50336,20.36503 73.03971,17.60678 75.5597,18.29815 75.5597,20.73031 0,3.05819 2.39671,8.29601 5.13618,11.22472 6.94357,7.42324 19.23286,7.12718 25.86685,-0.62315 l 2.38357,-2.78466 0.42879,4.54028 c 0.23584,2.49715 0.43094,13.53188 0.43357,24.52162 l 0.005,19.98135 H 425.58433 239.43732 Z"
     id="path263"
     inkscape:connector-curvature="0"
     transform="scale(0.75)" />
  <path
     style="fill:#ffffff;stroke-width:0.67164177"
     d="M 433.82301,139.57008 391.8997,97.662552 414.60662,65.857396 c 12.48881,-17.492837 22.95671,-32.086877 23.26202,-32.431202 0.51857,-0.584855 13.48285,0.543256 15.606,1.357985 0.97082,0.372537 2.2688,2.810785 35.6937,67.050651 l 23.38643,44.94677 -17.54776,17.34801 c -9.65128,9.5414 -17.93318,17.348 -18.40423,17.348 -0.47106,0 -19.72196,-18.85838 -42.77977,-41.90753 z"
     id="path265"
     inkscape:connector-curvature="0"
     transform="scale(0.75)" />
  <path
     style="fill:#ffffff;stroke-width:0.67164177"
     d="m 564.98667,269.5382 c -9.93782,-9.57352 -33.13022,-32.49863 -51.53867,-50.9447 l -33.46991,-33.53832 17.25731,-16.63411 c 14.3196,-13.80249 17.40484,-16.47942 18.12393,-15.72535 2.05901,2.15912 68.70405,133.2409 68.0668,133.87816 -0.20389,0.20388 -8.50165,-7.46217 -18.43946,-17.03568 z"
     id="path267"
     inkscape:connector-curvature="0"
     transform="scale(0.75)" />
  <path
     style="fill:#ffffff;stroke-width:0.67164177"
     d="m 530.46269,284.86584 c -56.47279,-13.71097 -104.282,-25.66845 -111.28342,-27.83289 -6.16745,-1.90663 -7.2042,-3.14674 -5.19468,-6.21365 0.64383,-0.98262 5.27804,-5.98997 10.29823,-11.12745 9.83077,-10.06044 49.72358,-48.52329 51.93063,-50.06916 1.25721,-0.88059 3.90764,1.62522 42.97066,40.62613 41.71724,41.65091 58.54541,59.05034 59.82252,61.85329 0.89324,1.96045 -0.39177,3.57424 -2.78663,3.49963 -0.97063,-0.0303 -21.56142,-4.86139 -45.75731,-10.7359 z"
     id="path269"
     inkscape:connector-curvature="0"
     transform="scale(0.75)" />
  <path
     style="fill:#ffffff;stroke-width:0.67164177"
     d="M 587.44721,282.86789 C 584.89195,278.4709 529.50555,171.54977 523.31882,159.07071 l -5.28151,-10.65318 7.83497,-7.48115 c 4.30923,-4.11464 14.99094,-14.36828 23.73714,-22.78588 8.7462,-8.41761 17.51944,-16.52578 19.49609,-18.01816 4.46033,-3.367587 6.46237,-3.346279 7.19866,0.0766 0.40942,1.90335 6.00896,69.96113 11.577,140.70895 1.45899,18.53803 2.36061,39.93898 1.79565,42.62162 l -0.48924,2.32311 z"
     id="path271"
     inkscape:connector-curvature="0"
     transform="scale(0.75)" />
  <path
     style="fill:#ffffff;stroke-width:0.67164177"
     d="m 607.02985,290.5406 c -2.61379,-2.65399 -7.93869,-5.63015 -10.07338,-5.63015 -0.76268,0 -1.50701,-0.3778 -1.65408,-0.83955 -0.14706,-0.46176 -0.90196,-9.15112 -1.67755,-19.30971 -1.30501,-17.09294 -10.27852,-128.19477 -12.44193,-154.04472 l -0.94746,-11.320853 3.32258,-4.334971 c 2.51953,-3.287236 3.32257,-4.90148 3.32257,-6.67892 0,-7.045495 -7.82928,-11.902876 -14.02296,-8.700004 -2.62,1.354856 -4.77578,4.702909 -4.78425,7.430218 -0.0181,5.842216 -0.45932,6.405737 -21.04007,26.87405 -19.12744,19.02296 -29.4477,28.5364 -30.95651,28.5364 -1.37974,0 -6.89261,-10.25612 -38.56346,-71.743368 l -19.48314,-37.825457 2.59111,-4.823798 c 5.30232,-9.871199 5.14308,-15.291951 -0.65569,-22.3207554 L 456.66927,1.8134328 472.24135,1.3924359 C 480.806,1.1608875 515.70619,0.77310249 549.79733,0.53069131 L 611.78123,0.08994367 611.4016,136.95915 c -0.36303,130.88608 -0.61893,156.03725 -1.5871,155.98967 -0.23864,-0.0118 -1.49174,-1.09543 -2.78465,-2.40822 z"
     id="path273"
     inkscape:connector-curvature="0"
     transform="scale(0.75)" />
  <path
     style="fill:#ffffff;stroke-width:0.67164177"
     d="M 1.6382402,204.81716 C 1.4165854,183.66884 1.0601659,128.94854 0.84619706,83.216492 L 0.45716272,0.06731139 39.956193,0.43465258 C 61.68066,0.63669022 144.58769,0.95481618 224.19403,1.1415992 303.80037,1.3283821 384.26878,1.6792089 403.01272,1.9212141 l 34.07988,0.4400096 -2.24567,2.7484926 c -3.60972,4.4179651 -4.45887,6.6080047 -4.45887,11.4998407 0,3.213631 0.47986,5.651842 1.72474,8.763537 0.99789,2.494354 1.54655,4.872532 1.30193,5.643269 -0.75596,2.381806 -36.69105,53.432706 -42.56109,60.464063 -1.9006,2.276611 -1.92718,2.284664 -3.70248,1.121447 -0.98348,-0.6444 -3.90021,-3.164057 -6.48164,-5.599242 -4.44357,-4.191838 -4.78719,-4.734786 -6.45296,-10.195973 -0.9677,-3.172594 -2.07422,-6.272368 -2.45892,-6.888378 -1.31578,-2.106893 -4.27137,-3.291414 -8.21267,-3.291414 -3.56198,0 -4.02443,0.187106 -6.44488,2.607548 -2.27371,2.273702 -2.60755,3.003394 -2.60755,5.699317 0,1.70047 0.36049,4.439586 0.80108,6.086929 0.74375,2.780785 0.64089,3.418421 -1.43704,8.908891 -4.58373,12.111459 -42.15959,93.661309 -44.00832,95.510039 -0.86683,0.86683 -2.30701,0.7622 -11.92084,-0.86603 -14.24559,-2.41269 -27.75273,-5.00321 -30.91623,-5.92939 -1.95751,-0.57311 -2.51865,-1.07825 -2.51865,-2.26733 0,-1.94348 7.26111,-45.10545 13.83059,-82.212661 9.56049,-54.001714 10.27041,-57.186495 13.29018,-59.620783 3.22632,-2.600797 4.44653,-4.928483 4.44197,-8.473525 -0.007,-5.76637 -3.81506,-9.80335 -9.25428,-9.811714 -3.59416,-0.0055 -5.62572,1.305293 -8.90709,5.747118 l -2.57895,3.491003 -5.91494,1.109151 C 244.79877,31.218573 140.37407,49.510647 126.90735,51.565866 l -7.6225,1.163306 -4.26104,-2.185482 c -4.94575,-2.536675 -8.06687,-2.761358 -11.22711,-0.808218 -2.50465,1.547954 -5.207254,5.848991 -5.184936,8.251498 0.0081,0.873211 0.612591,2.905178 1.343284,4.51548 0.730692,1.610303 1.328532,3.403484 1.328532,3.984847 0,1.328354 -26.303344,58.362213 -66.041815,143.199273 l -12.426831,26.52985 -6.200485,0.83374 c -6.114349,0.82216 -10.5912776,2.64738 -12.6867996,5.17232 -0.4775357,0.5754 -1.0973313,1.04618 -1.3773236,1.04618 -0.2799922,0 -0.6904308,-17.30317 -0.9120856,-38.4515 z"
     id="path275"
     inkscape:connector-curvature="0"
     transform="scale(0.75)" />
</svg>
