<?xml version="1.0" encoding="UTF-8" standalone="no"?>
<!-- Created with Inkscape (http://www.inkscape.org/) -->

<svg
   xmlns:dc="http://purl.org/dc/elements/1.1/"
   xmlns:cc="http://creativecommons.org/ns#"
   xmlns:rdf="http://www.w3.org/1999/02/22-rdf-syntax-ns#"
   xmlns:svg="http://www.w3.org/2000/svg"
   xmlns="http://www.w3.org/2000/svg"
   xmlns:sodipodi="http://sodipodi.sourceforge.net/DTD/sodipodi-0.dtd"
   xmlns:inkscape="http://www.inkscape.org/namespaces/inkscape"
   width="201.10991mm"
   height="130.61714mm"
   viewBox="0 0 201.10991 130.61714"
   version="1.1"
   id="svg292"
   inkscape:version="0.92.2 (5c3e80d, 2017-08-06)"
   sodipodi:docname="stars1.svg">
  <defs
     id="defs286" />
  <sodipodi:namedview
     id="base"
     pagecolor="#ffffff"
     bordercolor="#666666"
     borderopacity="1.0"
     inkscape:pageopacity="0.0"
     inkscape:pageshadow="2"
     inkscape:zoom="0.35"
     inkscape:cx="378.62157"
     inkscape:cy="98.264139"
     inkscape:document-units="mm"
     inkscape:current-layer="layer1"
     showgrid="false"
     inkscape:window-width="1366"
     inkscape:window-height="705"
     inkscape:window-x="-8"
     inkscape:window-y="-8"
     inkscape:window-maximized="1" />
  <metadata
     id="metadata289">
    <rdf:RDF>
      <cc:Work
         rdf:about="">
        <dc:format>image/svg+xml</dc:format>
        <dc:type
           rdf:resource="http://purl.org/dc/dcmitype/StillImage" />
        <dc:title></dc:title>
      </cc:Work>
    </rdf:RDF>
  </metadata>
  <g
     inkscape:label="Layer 1"
     inkscape:groupmode="layer"
     id="layer1"
     transform="translate(-5.6563763,-44.21525)">
    <path
       style="fill:#ffffff;fill-opacity:.4;stroke-width:0.23299977"
       d="m 80.750038,174.69881 c -1.93498,-0.0768 -2.060213,-0.1163 -2.908907,-0.91711 -1.11025,-1.04765 -1.755628,-2.67511 -1.956886,-4.9347 l -0.156092,-1.75251 -4.023177,-1.83138 C 69.492229,164.25582 60.341942,160.07482 51.371005,155.97194 34.791685,148.38937 18.68622,141.06976 16.599392,140.16889 l -1.151387,-0.49703 -1.083568,1.16963 c -1.818673,1.96314 -4.34524,2.28649 -6.7222,0.86031 -1.8308603,-1.0985 -1.9858607,-1.49271 -1.9858607,-5.05054 0,-3.49636 0.1288571,-3.82602 1.9579928,-5.00929 0.8572973,-0.5546 1.3827487,-0.69289 3.0201289,-0.79491 l 1.98226,-0.12348 13.1758,-31.15544 13.175796,-31.155426 -0.728906,-1.549812 -0.728905,-1.549813 0.492828,-1.118258 c 0.565292,-1.282671 1.597728,-2.089837 2.674789,-2.091176 0.821592,-9.94e-4 1.401664,0.282598 2.342076,1.145137 0.572707,0.525276 0.773793,0.568122 1.997244,0.425539 2.223074,-0.259078 11.027691,-1.889852 23.551986,-4.362251 6.468839,-1.277003 15.156835,-2.989938 19.306659,-3.806523 4.149819,-0.816583 7.753688,-1.535386 8.00859,-1.597336 0.273534,-0.06648 0.625366,-0.508451 0.858552,-1.078537 1.152442,-2.81732 3.869413,-3.296486 5.203073,-0.917618 0.5574,0.994231 0.59443,2.105367 0.10565,3.169494 -0.51225,1.115185 -0.97753,1.639154 -1.45557,1.639154 -0.22874,0 -0.50197,0.252399 -0.608917,0.562468 -0.745499,2.161568 -7.873328,47.139638 -8.051642,50.807498 l -0.06519,1.34157 2.219167,0.54611 c 2.969773,0.73086 10.562152,2.25735 12.134172,2.43965 l 1.26031,0.14615 1.03319,-2.41824 c 3.07027,-7.18618 11.8667,-28.299358 12.92364,-31.01928 1.37347,-3.534455 1.63373,-4.932208 1.0805,-5.802937 -1.13274,-1.78278 0.36112,-4.615748 2.43395,-4.615748 1.89279,0 2.82453,1.029269 3.10281,3.42762 0.0857,0.738546 0.28609,1.627389 0.44529,1.975208 0.26583,0.580792 4.54246,5.116587 4.8242,5.116587 0.0675,0 3.62693,-5.39243 7.90959,-11.983178 l 7.78667,-11.983179 -0.57869,-1.010564 c -1.72496,-3.012329 -1.5831,-5.842418 0.40469,-8.072287 0.7275,-0.816098 0.9077,-0.890905 2.50457,-1.039709 3.28051,-0.305699 3.77377,-0.241302 4.65031,0.607123 1.3113,1.26921 1.96252,2.737751 1.98075,4.466604 0.016,1.517286 -0.19553,2.149984 -1.64912,4.933008 l -0.51875,0.993169 4.13293,8.914652 c 10.48211,22.609746 14.73296,31.419737 15.19722,31.496518 0.29695,0.04913 0.98161,-0.425607 1.97318,-1.368129 2.56557,-2.438685 14.45057,-15.440255 14.98397,-16.391672 0.31137,-0.555406 0.55914,-1.499429 0.65137,-2.481802 0.13239,-1.409975 0.23711,-1.674593 0.94621,-2.390967 0.6427,-0.649303 0.98207,-0.805525 1.74984,-0.805525 1.41809,0 2.68281,1.117861 2.95129,2.608583 0.19816,1.100237 -0.0404,1.71632 -1.18727,3.06814 l -1.00818,1.188173 1.15519,15.465802 c 0.63536,8.50619 1.75368,23.72233 2.48517,33.81362 0.73148,10.09131 1.37347,18.48542 1.42662,18.65362 0.0532,0.16819 0.32984,0.3058 0.61484,0.3058 0.73596,0 2.79343,1.18162 3.13755,1.80194 0.15931,0.28717 0.61563,1.80838 1.01406,3.38048 l 0.72438,2.85837 -0.52181,0.93352 c -1.14221,2.04339 -2.6542,3.00047 -4.74747,3.00517 -2.41868,0.006 -4.68342,-1.69255 -5.20502,-3.9024 -0.12756,-0.54042 -0.33222,-1.4098 -0.4548,-1.93189 -0.16161,-0.68838 -0.39037,-1.02266 -0.83218,-1.21612 -1.04394,-0.45711 -52.97823,-14.2253 -53.65852,-14.2253 -0.20827,0 -0.76555,0.3853 -1.2384,0.85624 -0.74644,0.7434 -1.00926,0.85621 -1.99475,0.85621 -1.02261,0 -1.2204,-0.0942 -1.99661,-0.94976 -1.01462,-1.11849 -1.13154,-2.1559 -0.417,-3.69992 0.54737,-1.18279 1.00278,-1.46626 2.35568,-1.46626 2.17935,0 2.47964,-0.27212 14.91888,-13.52031 l 8.73154,-9.29937 -13.92141,-15.194484 c -7.65678,-8.356979 -14.04266,-15.273347 -14.19086,-15.369717 -0.30803,-0.20031 -2.92247,3.663668 -12.53484,18.525737 -6.7328,10.409864 -8.29978,13.042594 -8.17794,13.740064 0.0983,0.5625 1.12571,0.82299 11.99469,3.04077 l 8.59423,1.75364 0.8795,-0.87592 c 1.03045,-1.02627 2.14039,-1.33102 3.36935,-0.92511 1.41136,0.46614 2.0787,2.22896 1.53336,4.05051 -0.40047,1.33772 -1.29907,1.84028 -3.29236,1.8414 -1.8981,10e-4 -1.00358,-0.64393 -9.8029,7.06847 -16.02458,14.04514 -39.137358,35.27181 -39.725881,36.48406 -0.144442,0.29753 -0.14344,0.67022 0.003,1.09465 0.514894,1.49296 0.144771,4.49072 -0.720065,5.83198 -0.575913,0.8932 -2.127389,2.13372 -2.586458,2.06806 -0.195277,-0.0279 -1.264967,-0.0868 -2.377086,-0.13105 z m -3.336557,-9.51369 c 1.323742,-1.31335 2.0659,-1.71873 3.527783,-1.92692 0.57975,-0.0825 1.054202,-0.17092 1.054335,-0.1963 3.29e-4,-0.14797 1.601816,-10.17102 3.541617,-22.17145 1.35295,-8.36992 2.151796,-13.89593 2.028463,-14.03189 -0.386211,-0.42576 -13.168376,1.20707 -46.624715,5.95598 -22.485056,3.19159 -25.076467,3.70739 -25.076467,4.99149 0,0.48126 0.721088,0.89172 6.047202,3.44214 9.218304,4.41418 13.925709,6.59385 45.104355,20.88446 5.004201,2.29363 9.133799,4.17374 9.176894,4.178 0.04308,0.004 0.592331,-0.50226 1.220533,-1.12551 z m 10.617676,-2.58561 c 4.651173,-4.08215 41.438403,-37.44417 44.838253,-40.66345 0.57971,-0.54889 1.05404,-1.07315 1.0541,-1.16499 2.2e-4,-0.39378 -1.04061,-0.45672 -3.48896,-0.21094 -5.45677,0.54779 -24.27714,3.29718 -25.04357,3.65849 -0.25317,0.11935 -0.95221,1.0109 -1.5534,1.98122 l -1.09311,1.76419 0.0594,2.30513 c 0.0327,1.26782 -0.0388,2.50737 -0.15876,2.75455 -0.31578,0.65045 -1.59737,1.24711 -2.67876,1.24711 -0.788321,0 -1.06916,-0.14712 -1.782878,-0.93391 -0.912475,-1.00591 -1.226532,-1.89256 -1.008918,-2.84839 0.179475,-0.78831 1.611532,-2.3096 2.336689,-2.48226 1.565377,-0.37276 2.678427,-1.51182 2.678427,-2.74103 0,-0.68231 -0.23477,-0.68403 -5.81269,-0.0425 -6.998158,0.80483 -7.710835,0.94615 -7.83712,1.55401 -0.05964,0.28706 -0.961527,5.86116 -2.004198,12.38686 -1.042663,6.5257 -2.291059,14.24741 -2.774208,17.15934 -1.005392,6.05951 -1.038026,6.58009 -0.449306,7.16743 0.37154,0.37069 1.819768,1.07306 2.277925,1.10479 0.08526,0.006 1.183748,-0.89212 2.441068,-1.99562 z m 108.250753,-10.7148 c 0.57568,-0.63461 0.56992,-0.68032 -0.2644,-2.09863 -0.67321,-1.14441 -31.13299,-35.07533 -32.83389,-36.57557 l -0.80957,-0.71408 -4.18354,4.33164 c -2.30093,2.3824 -7.10449,7.53228 -10.67455,11.44416 -6.11044,6.69551 -6.49104,7.16421 -6.49104,7.99344 0,0.48449 0.13104,1.00078 0.2912,1.14731 0.61384,0.5616 9.36847,3.02464 35.30862,9.93381 9.77399,2.6033 17.97061,4.78663 18.21473,4.85186 0.81497,0.21775 0.99586,0.1784 1.44244,-0.31394 z m -2.10926,-11.9499 c -5.93771,-13.01091 -19.06167,-41.124664 -19.19463,-41.118194 -0.0611,0.0023 -2.80724,2.918134 -6.10268,6.478134 l -5.99172,6.47273 12.42727,13.57625 c 18.89775,20.64492 22.50521,24.4583 22.8147,24.11713 0.20192,-0.2226 -0.70906,-2.41798 -3.95294,-9.52605 z m 5.7401,3.99376 c -0.032,-4.84406 -0.41569,-10.64443 -2.92755,-44.270722 l -1.47999,-19.812392 -0.6255,-0.330447 c -1.07623,-0.568568 -1.55144,-0.135008 -11.96821,10.919322 -3.99725,4.24191 -7.26773,7.81405 -7.26773,7.938084 0,0.219137 17.87266,38.374105 21.71742,46.362855 1.31924,2.74114 2.01998,3.95889 2.24927,3.90876 0.28345,-0.0619 0.32847,-0.76458 0.30229,-4.71546 z M 48.042266,131.11292 c 34.693062,-4.80374 39.457608,-5.50338 39.761821,-5.83875 0.530239,-0.58453 2.647338,-14.56394 2.267944,-14.97552 -0.196895,-0.21361 -8.584679,-2.06821 -22.05736,-4.87703 -5.572923,-1.16189 -7.062479,-1.39827 -7.34609,-1.16583 -0.195664,0.16036 -0.784854,0.64935 -1.30931,1.08665 -1.211278,1.00993 -2.074922,1.0337 -3.257108,0.0897 -1.644521,-1.31326 -1.811758,-3.29578 -0.408495,-4.84272 0.623392,-0.687214 0.896078,-0.812472 1.768844,-0.812472 0.567502,0 1.31764,0.16293 1.666964,0.362072 0.765551,0.43641 1.561982,1.50071 1.561982,2.08735 0,0.97896 -0.51041,0.84627 16.976549,4.41336 6.590895,1.34445 12.197401,2.49615 12.458909,2.55934 0.560118,0.13533 0.20048,2.01418 3.512634,-18.351383 2.621025,-16.115988 4.396747,-27.705815 4.806149,-31.3689 L 98.725302,56.9771 97.849979,56.12512 c -1.477613,-1.438226 -1.742519,-1.464581 -6.217315,-0.618555 -12.500445,2.363383 -46.495452,9.237678 -47.077444,9.519757 -0.270156,0.130933 -0.737898,0.668899 -1.039434,1.195469 -0.669578,1.169284 -1.494683,1.911421 -2.357328,2.120289 -0.357127,0.08647 -0.909849,0.498535 -1.228271,0.9157 -1.078427,1.412869 -5.117849,10.684143 -20.83753,47.82628 l -5.927136,14.0045 1.022983,1.28533 c 0.562642,0.70695 1.194006,1.71036 1.403035,2.22983 0.375251,0.93254 0.392691,0.94275 1.380603,0.80862 0.550305,-0.0747 14.531861,-2.00945 31.070124,-4.29939 z m 47.759455,-6.64222 c 4.994569,-0.6937 6.987599,-1.04131 7.155649,-1.24801 0.51034,-0.6278 3.67063,-8.49696 3.67063,-9.13992 0,-0.7042 0.2664,-0.61717 -5.54789,-1.81269 -2.624159,-0.53957 -5.754751,-1.20414 -6.956869,-1.47682 -1.202118,-0.27272 -2.281792,-0.43034 -2.399279,-0.35029 -0.328255,0.22362 -0.622394,1.23072 -1.089115,3.72891 -0.644948,3.45223 -1.538187,9.4251 -1.538187,10.28554 0,0.96902 -0.173783,0.96868 6.705061,0.0137 z m 9.447969,-1.88134 c 1.67063,-2.33548 5.34247,-8.23499 5.23961,-8.41847 -0.0632,-0.11276 -0.6428,-0.205 -1.28798,-0.205 -0.83746,0 -1.27199,0.12252 -1.51895,0.42813 -0.46248,0.57234 -3.22601,7.32177 -3.4075,8.32221 -0.19218,1.05926 0.15905,1.01357 0.97482,-0.12692 z m 8.92375,-0.67368 c 8.01065,-1.04894 18.49644,-2.57618 18.62211,-2.71228 0.0508,-0.0551 0.0474,-0.1497 -0.007,-0.21029 -0.0754,-0.0832 -17.01549,-3.69488 -20.65577,-4.40391 -0.53826,-0.10488 -0.75132,0.10994 -2.1206,2.13762 -1.53097,2.26711 -3.40084,5.17175 -3.69532,5.74022 -0.23786,0.45919 0.57536,0.40212 7.85706,-0.55136 z m -2.80403,-9.4216 c 1.02721,-0.99427 2.39415,-3.02298 12.6697,-18.803576 l 8.82171,-13.547862 -2.62743,-2.904017 c -2.49585,-2.75859 -3.34484,-3.371235 -3.72706,-2.689472 -0.0662,0.118005 -0.55658,0.335656 -1.08984,0.483681 -1.13334,0.314596 -1.51358,0.859643 -3.22948,4.629049 -3.34462,7.347377 -13.84218,32.804567 -13.69805,33.218597 0.0813,0.23345 0.45744,0.3515 1.12021,0.3515 0.7935,0 1.15401,-0.15112 1.76024,-0.7379 z m 57.04591,-7.95471 c 3.23383,-3.43542 5.93692,-6.348302 6.00686,-6.473054 0.07,-0.124752 -2.18549,-5.157639 -5.01206,-11.184198 -5.8211,-12.41122 -14.22138,-30.252434 -14.28783,-30.345684 -0.0242,-0.03406 -1.28377,-0.214863 -2.79888,-0.40176 -2.51686,-0.310469 -2.78023,-0.305121 -3.05002,0.06194 -0.40572,0.552041 -15.00757,23.071281 -15.22942,23.4871 -0.26803,0.50236 27.53723,31.101876 28.26174,31.101876 0.12646,0 2.87579,-2.81081 6.10961,-6.24623 z"
       id="path243"
       inkscape:connector-curvature="0" />
  </g>
</svg>
